<?xml version="1.0" encoding="UTF-8" standalone="no"?>
<!-- Created with Inkscape (http://www.inkscape.org/) -->

<svg
   version="1.1"
   id="svg824"
   xml:space="preserve"
   width="890.03418"
   height="338.1058"
   viewBox="0 0 890.03417 338.1058"
   sodipodi:docname="SOURCE_LOGO_AMIENS_WHITE.svg"
   inkscape:version="1.1 (c68e22c387, 2021-05-23)"
   xmlns:inkscape="http://www.inkscape.org/namespaces/inkscape"
   xmlns:sodipodi="http://sodipodi.sourceforge.net/DTD/sodipodi-0.dtd"
   xmlns="http://www.w3.org/2000/svg"
   xmlns:svg="http://www.w3.org/2000/svg"><defs
     id="defs828"><clipPath
       clipPathUnits="userSpaceOnUse"
       id="clipPath838"><path
         d="M 0,841.89 H 1496.835 V 0 H 0 Z"
         id="path836" /></clipPath></defs><sodipodi:namedview
     id="namedview826"
     pagecolor="#ffffff"
     bordercolor="#666666"
     borderopacity="1.0"
     inkscape:pageshadow="2"
     inkscape:pageopacity="0.0"
     inkscape:pagecheckerboard="true"
     showgrid="false"
     fit-margin-top="2"
     fit-margin-left="2"
     fit-margin-right="2"
     fit-margin-bottom="2"
     inkscape:zoom="0.99913207"
     inkscape:cx="296.25713"
     inkscape:cy="166.64464"
     inkscape:window-width="2400"
     inkscape:window-height="1271"
     inkscape:window-x="2391"
     inkscape:window-y="-9"
     inkscape:window-maximized="1"
     inkscape:current-layer="g830" /><g
     id="g830"
     inkscape:groupmode="layer"
     inkscape:label="SOURCE_LOGO_AMIENS_&amp;_COULEURS"
     transform="matrix(1.3333333,0,0,-1.3333333,-552.87261,745.82048)"><path
       d="m 435.3445,474.2347 c 0.031,-1.924 0.086,-3.806 0.087,-5.687 0.007,-15.719 0.003,-31.438 0.006,-47.157 0,-1.547 -0.052,-3.099 0.054,-4.639 0.247,-3.592 0.863,-7.102 2.622,-10.32 1.659,-3.039 4.092,-5.136 7.363,-6.327 2.609,-0.951 5.281,-1.362 8.044,-1.435 5.011,-0.132 9.97,0.426 14.924,1.047 0.58,0.073 1.139,0.315 1.79,0.501 v 1.849 c 0,17.016 -0.002,34.032 10e-4,51.049 0,3.043 0.05,6.088 0.01,9.131 -0.012,0.913 0.256,1.595 0.86,2.271 3.772,4.222 8.472,6.962 13.796,8.711 1.393,0.458 2.821,0.814 4.388,1.261 0.046,-0.64 0.104,-1.071 0.105,-1.502 0.004,-28.194 0.004,-56.388 0.001,-84.582 0,-1.431 -0.013,-1.434 -1.378,-1.747 -2.808,-0.643 -5.599,-1.379 -8.43,-1.899 -2.645,-0.485 -5.326,-0.793 -8.002,-1.084 -3.518,-0.382 -7.042,-0.808 -10.574,-0.965 -4.429,-0.197 -8.861,-0.385 -13.303,0.206 -2.472,0.328 -4.955,0.564 -7.378,1.155 -7.161,1.746 -13.515,4.843 -18.073,10.913 -2.109,2.81 -3.569,5.919 -4.512,9.297 -1.203,4.313 -1.579,8.711 -1.572,13.169 0.022,14.721 0.025,29.442 -0.019,44.163 -0.004,1.346 0.379,2.333 1.288,3.314 3.7,3.995 8.259,6.572 13.353,8.299 1.214,0.411 2.456,0.741 3.694,1.078 0.216,0.059 0.474,-0.034 0.855,-0.07"
       style="fill:#ffffff;fill-opacity:1;fill-rule:nonzero;stroke:none"
       id="path842" /><path
       d="m 1080.6801,533.303 c -0.263,-0.215 -0.567,-0.615 -0.964,-0.764 -1.949,-0.732 -3.933,-1.369 -5.884,-2.093 -3.483,-1.291 -6.957,-2.605 -10.422,-3.94 -3.876,-1.494 -7.747,-3.003 -11.605,-4.542 -2.44,-0.973 -4.853,-2.014 -7.279,-3.021 -0.739,-0.307 -1.147,-0.731 -1.202,-1.647 -0.235,-3.93 -0.484,-7.865 -0.911,-11.777 -0.334,-3.06 -0.909,-6.095 -1.432,-9.131 -0.321,-1.863 -0.645,-3.735 -1.148,-5.553 -0.767,-2.77 -1.659,-5.506 -2.563,-8.236 -0.386,-1.168 -0.875,-1.262 -1.808,-0.437 -3.416,3.025 -6.814,6.07 -10.222,9.104 -4.631,4.123 -9.25,8.26 -13.905,12.356 -1.995,1.755 -4.37,1.974 -6.688,0.938 -6.779,-3.029 -13.492,-6.206 -20.238,-9.308 -7.694,-3.539 -15.396,-7.061 -23.095,-10.589 -1.938,-0.888 -3.879,-1.77 -5.817,-2.659 -0.18,-0.083 -0.347,-0.28 -0.518,-0.277 -0.373,0.006 -0.942,-0.014 -1.069,0.196 -0.18,0.297 -0.181,0.879 0.002,1.185 0.582,0.976 1.275,1.888 1.941,2.812 7.611,10.551 15.753,20.67 24.684,30.138 6.297,6.676 12.922,13.011 20.013,18.85 7.553,6.218 15.547,11.813 24.073,16.604 3.879,2.179 7.95,4.021 11.966,5.948 1.63,0.782 2.346,0.467 2.908,-1.246 0.541,-1.648 0.934,-3.347 1.338,-5.037 0.835,-3.488 1.37,-7.028 1.714,-10.596 0.07,-0.721 0.42,-1.08 1.119,-1.152 0.496,-0.051 0.991,-0.167 1.486,-0.164 5.005,0.029 9.952,-0.713 14.919,-1.157 1.874,-0.168 3.723,-0.602 5.583,-0.921 2.063,-0.354 4.133,-0.669 6.184,-1.084 2.578,-0.521 5.145,-1.105 7.704,-1.714 0.43,-0.102 1.014,-0.201 1.136,-1.086"
       style="fill:#ffffff;fill-opacity:1;fill-rule:nonzero;stroke:none"
       id="path846" /><path
       d="m 798.3593,450.2941 c -1.434,1.049 -2.538,1.866 -3.653,2.669 -3.12,2.245 -6.514,4.039 -10.168,5.145 -4.714,1.428 -9.573,2.035 -14.448,0.72 -2.678,-0.723 -4.835,-2.193 -6.031,-4.851 -1.875,-4.168 -0.715,-8.815 3.206,-11.223 1.675,-1.028 3.481,-1.913 5.331,-2.572 3.313,-1.179 6.726,-2.073 10.058,-3.203 4.869,-1.653 9.502,-3.814 13.355,-7.297 3.4,-3.072 5.569,-6.893 6.636,-11.39 1.171,-4.937 1.361,-9.91 0.354,-14.83 -1.327,-6.482 -4.759,-11.676 -10.439,-15.283 -3.609,-2.291 -7.529,-3.728 -11.698,-4.597 -4.573,-0.953 -9.198,-1.305 -13.834,-0.945 -3.463,0.269 -6.91,0.796 -10.273,1.797 -3.199,0.951 -6.266,2.158 -9.181,3.788 -1.088,0.609 -1.487,1.382 -1.472,2.625 0.059,5.139 0.02,10.279 0.031,15.418 0.001,0.52 0.094,1.041 0.167,1.798 1.362,-0.913 2.509,-1.653 3.626,-2.436 3.317,-2.324 6.942,-4.057 10.781,-5.261 3.241,-1.017 6.619,-1.444 10.036,-1.341 2.494,0.075 4.96,0.262 7.353,1.119 3.596,1.287 6.118,3.55 6.71,7.427 0.633,4.146 -0.923,7.43 -4.491,9.66 -2.709,1.693 -5.715,2.73 -8.759,3.63 -4.516,1.335 -9.036,2.68 -13.22,4.874 -4.99,2.617 -9.168,6.115 -11.466,11.454 -1.068,2.483 -1.733,5.064 -1.942,7.768 -0.2,2.591 -0.286,5.165 -0.019,7.765 0.619,6.029 3.067,11.155 7.432,15.327 3.672,3.509 8.129,5.582 13.026,6.822 4.509,1.141 9.094,1.351 13.67,0.929 6.29,-0.58 12.278,-2.297 17.766,-5.563 1.098,-0.653 1.614,-1.345 1.591,-2.696 -0.087,-5.137 -0.035,-10.278 -0.035,-15.417 0,-0.487 0,-0.973 0,-1.83"
       style="fill:#ffffff;fill-opacity:1;fill-rule:nonzero;stroke:none"
       id="path850" /><path
       d="m 991.1544,424.0931 c -0.241,1.552 -0.416,2.872 -0.655,4.18 -0.463,2.546 -1.519,4.799 -3.303,6.715 -3.573,3.837 -10.669,4.444 -15.505,1.721 -3.319,-1.868 -5.369,-4.785 -6.676,-8.266 -0.514,-1.367 -1.186,-2.73 -0.974,-4.35 z m 14.505,-20.133 c 0.046,-0.644 0.103,-1.08 0.104,-1.517 0.01,-4.09 -0.02,-8.181 0.021,-12.271 0.011,-1.007 -0.294,-1.653 -1.193,-2.177 -2.54,-1.48 -5.217,-2.572 -8.024,-3.455 -3.359,-1.056 -6.816,-1.515 -10.272,-1.821 -3.462,-0.306 -6.953,-0.376 -10.443,0.203 -2.014,0.334 -4.043,0.562 -6.013,1.113 -10.245,2.868 -17.614,8.967 -21.446,19.054 -1.083,2.852 -1.724,5.784 -2.116,8.811 -0.31,2.389 -0.502,4.769 -0.364,7.156 0.473,8.182 2.394,15.902 7.575,22.504 4.069,5.184 9.266,8.679 15.623,10.525 5.127,1.488 10.328,1.697 15.54,0.958 6.25,-0.887 11.795,-3.342 16.031,-8.239 2.54,-2.937 4.204,-6.341 5.38,-10.013 1.446,-4.512 1.74,-9.174 1.835,-13.861 0.041,-2.044 0.015,-4.091 0.01,-6.136 -0.01,-1.792 -0.024,-1.807 -1.878,-1.808 -4.943,-0.004 -9.886,-0.002 -14.829,-0.002 -8.587,0 -17.174,10e-4 -25.761,-0.001 -1.958,0 -1.926,0.002 -1.487,-1.851 1.289,-5.435 4.892,-8.797 9.817,-10.957 3.621,-1.589 7.443,-2.221 11.369,-1.974 5.684,0.358 11.258,1.267 16.405,3.918 1.011,0.521 2.029,1.029 3.054,1.523 0.256,0.123 0.55,0.168 1.066,0.318"
       style="fill:#ffffff;fill-opacity:1;fill-rule:nonzero;stroke:none"
       id="path854" /><path
       d="m 567.1352,384.2175 c -0.601,-0.05 -1.13,-0.132 -1.658,-0.133 -4.944,-0.01 -9.887,-0.008 -14.831,-0.004 -1.713,0.001 -1.725,0.009 -1.726,1.768 -0.004,12.523 0.004,25.047 -0.01,37.57 -0.002,1.495 -0.053,2.995 -0.192,4.483 -0.416,4.434 -3.348,7.717 -7.57,8.63 -3.082,0.667 -6.121,0.634 -9.187,0.065 -1.957,-0.363 -3.917,-0.705 -5.866,-1.107 -0.61,-0.126 -1.187,-0.417 -1.843,-0.656 v -50.495 c -1.346,-0.358 -16.586,-0.351 -17.957,0.014 -0.022,0.489 -0.067,1.023 -0.067,1.556 -0.004,19.958 -0.004,39.915 -0.002,59.873 0,1.622 -0.018,1.698 1.562,2.198 2.88,0.912 5.769,1.812 8.695,2.553 2.984,0.755 5.99,1.53 9.035,1.91 5.686,0.71 11.391,1.3 17.155,0.816 3.643,-0.306 7.209,-0.86 10.627,-2.182 5.892,-2.279 9.922,-6.333 12.025,-12.346 1.406,-4.017 1.844,-8.166 1.868,-12.347 0.079,-13.571 0.032,-27.142 0.029,-40.713 -0.001,-0.437 -0.051,-0.875 -0.087,-1.453"
       style="fill:#ffffff;fill-opacity:1;fill-rule:nonzero;stroke:none"
       id="path858" /><path
       d="m 848.3643,412.6586 c -2.455,0 -4.64,0.007 -6.824,-0.002 -2.448,-0.01 -4.862,-0.305 -7.181,-1.103 -1.863,-0.641 -3.479,-1.629 -4.508,-3.433 -0.832,-1.459 -0.973,-3.004 -0.847,-4.605 0.183,-2.318 1.266,-4.121 3.21,-5.415 2.149,-1.43 4.626,-1.761 7.088,-1.988 2.38,-0.22 4.762,-0.004 7.139,0.394 1.886,0.317 1.918,0.184 1.921,2.037 0.006,4.137 0.002,8.274 0.002,12.411 0,0.488 0,0.976 0,1.704 m -0.071,11.91 c 0.066,2.607 0.388,5.113 -0.571,7.491 -1.059,2.63 -3.217,4.107 -5.826,4.924 -3.459,1.083 -7.037,0.887 -10.541,0.463 -4.463,-0.541 -8.657,-2.102 -12.631,-4.216 -0.217,-0.115 -0.409,-0.277 -0.628,-0.388 -0.261,-0.132 -0.539,-0.233 -0.929,-0.398 -0.097,0.337 -0.262,0.645 -0.263,0.954 -0.017,4.491 -0.011,8.982 -0.016,13.474 -10e-4,0.766 0.283,1.221 1.026,1.615 3.137,1.661 6.438,2.795 9.89,3.609 5.894,1.39 11.848,1.703 17.822,0.967 5.34,-0.659 10.363,-2.257 14.378,-6.138 2.841,-2.746 4.545,-6.098 5.438,-9.899 0.745,-3.172 0.945,-6.394 0.938,-9.648 -0.028,-13.274 -0.012,-26.548 -0.012,-39.822 0,-0.4 -0.014,-0.799 -10e-4,-1.198 0.024,-0.744 -0.362,-1.056 -1.07,-1.16 -3.691,-0.545 -7.365,-1.228 -11.07,-1.643 -3.913,-0.439 -7.849,-0.796 -11.782,-0.877 -3.33,-0.07 -6.692,0.124 -10.001,0.526 -4.553,0.553 -8.984,1.685 -12.971,4.107 -3.512,2.133 -6.142,5.062 -7.487,8.954 -1.293,3.741 -1.431,7.612 -0.722,11.516 0.729,4.009 2.591,7.385 5.682,10.022 2.676,2.283 5.816,3.725 9.183,4.717 5.223,1.538 10.588,1.817 15.979,1.895 1.698,0.025 3.396,0.001 5.094,0.013 0.292,0.002 0.584,0.072 1.091,0.14"
       style="fill:#ffffff;fill-opacity:1;fill-rule:nonzero;stroke:none"
       id="path862" /><path
       d="m 716.7983,412.562 c -0.312,0.048 -0.504,0.108 -0.695,0.103 -3.386,-0.084 -6.774,0.201 -10.156,-0.392 -1.739,-0.305 -3.39,-0.717 -4.918,-1.577 -3.493,-1.965 -4.088,-5.379 -3.063,-9.061 0.629,-2.261 2.385,-3.626 4.521,-4.41 1.104,-0.405 2.319,-0.501 3.463,-0.81 2.317,-0.626 4.659,-0.384 6.988,-0.217 1.27,0.09 2.524,0.406 3.86,0.633 z m 0.1,11.858 c -0.15,2.549 0.288,4.821 -0.464,7.082 -0.779,2.345 -2.367,3.867 -4.505,4.884 -1.625,0.773 -3.364,1.153 -5.174,1.255 -3.355,0.189 -6.697,0.031 -9.957,-0.733 -2.895,-0.678 -5.699,-1.709 -8.356,-3.082 -0.872,-0.451 -1.738,-0.913 -2.792,-1.467 -0.104,0.518 -0.236,0.874 -0.237,1.23 -0.014,4.391 -0.005,8.781 -0.014,13.172 -0.002,0.815 0.253,1.319 1.063,1.744 3.143,1.651 6.444,2.784 9.896,3.596 5.893,1.385 11.842,1.681 17.818,0.964 4.524,-0.543 8.845,-1.824 12.578,-4.622 2.94,-2.202 4.973,-5.047 6.313,-8.459 1.471,-3.743 1.803,-7.663 1.824,-11.593 0.075,-13.671 0.03,-27.342 0.029,-41.013 0,-0.349 0.005,-0.699 -0.027,-1.046 -0.061,-0.687 -0.42,-1.041 -1.136,-1.145 -3.691,-0.538 -7.366,-1.205 -11.068,-1.65 -4.803,-0.578 -9.63,-1.084 -14.474,-0.882 -4.827,0.201 -9.663,0.552 -14.307,2.031 -4.221,1.345 -8.015,3.409 -10.847,6.962 -2.047,2.568 -3.127,5.552 -3.49,8.735 -0.378,3.323 -0.203,6.631 0.879,9.888 1.281,3.855 3.661,6.796 6.97,8.994 2.793,1.855 5.916,2.981 9.187,3.758 4.941,1.174 9.96,1.348 14.997,1.395 1.686,0.015 3.373,0.002 5.294,0.002"
       style="fill:#ffffff;fill-opacity:1;fill-rule:nonzero;stroke:none"
       id="path866" /><path
       d="m 618.2185,384.1468 c 0,0.705 0,1.249 0,1.793 0,25.346 0.008,50.693 -0.025,76.039 -10e-4,1.18 0.33,2.04 1.123,2.901 3.725,4.044 8.323,6.651 13.484,8.364 1.123,0.373 2.259,0.709 3.396,1.037 0.715,0.206 1.041,-0.018 1.111,-0.748 0.038,-0.396 0.014,-0.798 0.014,-1.197 0.019,-23.101 0.038,-46.201 0.057,-69.302 10e-4,-0.633 0,-1.266 0,-2.122 11.72,-0.017 23.228,0.005 34.682,-0.012 0.424,-1.393 0.454,-15.271 0.065,-16.753 z"
       style="fill:#ffffff;fill-opacity:1;fill-rule:nonzero;stroke:none"
       id="path870" /><path
       d="m 934.2938,472.8545 v -88.538 c -1.206,-0.314 -16.236,-0.375 -17.958,-0.071 -0.027,0.452 -0.08,0.936 -0.08,1.42 -0.008,25.199 -0.008,50.398 -0.031,75.598 -10e-4,0.955 0.254,1.678 0.9,2.407 2.789,3.149 6.17,5.45 10.025,7.048 1.826,0.757 3.735,1.318 5.619,1.929 0.447,0.145 0.945,0.133 1.525,0.207"
       style="fill:#ffffff;fill-opacity:1;fill-rule:nonzero;stroke:none"
       id="path874" /><path
       d="m 899.6523,384.1653 h -18.049 c -0.036,0.58 -0.091,1.064 -0.091,1.547 -0.009,25.189 -0.007,50.378 -0.033,75.567 -10e-4,0.974 0.319,1.667 0.952,2.387 3.018,3.433 6.764,5.782 10.96,7.459 1.924,0.769 3.89,1.442 5.847,1.749 0.166,-0.096 0.213,-0.113 0.247,-0.145 0.035,-0.034 0.077,-0.08 0.081,-0.124 0.033,-0.344 0.083,-0.689 0.083,-1.034 0.003,-29.076 0.003,-58.153 0.003,-87.406"
       style="fill:#ffffff;fill-opacity:1;fill-rule:nonzero;stroke:none"
       id="path878" /><path
       d="m 600.5032,451.5743 c 0.329,-1.822 0.267,-66.22 -0.049,-67.422 h -17.571 c -0.042,0.542 -0.112,1.019 -0.112,1.497 -0.006,18.114 0.003,36.227 -0.025,54.341 -0.002,1.084 0.336,1.892 1.057,2.663 3.074,3.287 6.769,5.624 10.942,7.238 1.841,0.712 3.715,1.328 5.758,1.683"
       style="fill:#ffffff;fill-opacity:1;fill-rule:nonzero;stroke:none"
       id="path882" /><path
       d="m 591.6011,461.7378 c -6.137,-0.108 -10.934,5.181 -10.714,10.985 0.245,6.484 4.91,10.91 10.966,10.834 6.129,-0.076 10.736,-4.785 10.74,-11.235 0.003,-5.736 -4.965,-10.817 -10.992,-10.584"
       style="fill:#ffffff;fill-opacity:1;fill-rule:nonzero;stroke:none"
       id="path886" /><path
       d="m 996.9423,536.2183 c -0.418,-0.322 -0.818,-0.669 -1.255,-0.962 -6.477,-4.338 -12.563,-9.178 -18.374,-14.363 -0.953,-0.851 -1.696,-1.068 -3.01,-0.52 -3.464,1.445 -7.045,2.614 -10.59,3.865 -1.959,0.691 -3.933,1.344 -5.915,1.967 -0.477,0.15 -0.922,0.34 -0.852,0.836 0.04,0.288 0.445,0.647 0.76,0.752 1.598,0.533 3.211,1.027 4.836,1.471 3.202,0.874 6.4,1.769 9.629,2.535 2.752,0.653 5.545,1.132 8.318,1.694 1.992,0.405 3.977,0.85 5.975,1.223 1.759,0.327 3.533,0.571 5.298,0.867 1.66,0.279 3.318,0.579 4.977,0.87 0.067,-0.079 0.135,-0.157 0.203,-0.235"
       style="fill:#ffffff;fill-opacity:1;fill-rule:nonzero;stroke:none"
       id="path890" /><path
       d="m 769.9717,326.3791 h 16.675 l -8.254,28.931 h -0.084 z m -14.757,-18.259 13.924,43.855 3.001,10.422 13.09,0.751 16.591,-55.028 h -10.005 l -3.668,12.84 h -19.76 l -3.668,-12.84 z"
       style="fill:#ffffff;fill-opacity:1;fill-rule:nonzero;stroke:none"
       id="path894" /><path
       d="m 808.4092,308.1203 v 31.516 l -0.75,10.172 10.755,0.833 v -7.087 c 3.002,4.503 7.921,7.087 12.84,7.087 5.336,0 8.921,-3.085 10.255,-8.004 3.085,5.086 8.337,8.004 13.506,8.004 7.087,0 10.922,-5.336 10.922,-13.006 v -29.515 h -10.005 v 27.097 c 0,5.586 -2.251,8.337 -5.919,8.337 -2.501,-0.083 -5.503,-1.417 -7.92,-3.918 0.083,-0.667 0.083,-1.334 0.083,-2.001 v -29.515 h -10.005 v 27.097 c 0,5.586 -2.251,8.337 -5.92,8.254 -2.501,0 -5.419,-1.251 -7.837,-3.752 v -31.599 z"
       style="fill:#ffffff;fill-opacity:1;fill-rule:nonzero;stroke:none"
       id="path898" /><path
       d="m 875.9464,308.1203 v 31.432 l -0.75,10.256 10.755,0.833 v -42.521 z m 4.669,49.44 c -3.252,0 -5.502,1.918 -5.502,5.003 0,3.418 2.667,6.086 6.503,6.086 3.168,0 5.419,-1.834 5.419,-5.086 0,-3.668 -2.835,-6.003 -6.42,-6.003"
       style="fill:#ffffff;fill-opacity:1;fill-rule:nonzero;stroke:none"
       id="path902" /><path
       d="m 903.8785,331.382 15.174,0.583 c 0.083,1.251 0.167,2.418 0.167,3.585 0,6.003 -2.418,9.672 -6.754,9.672 -5.169,0 -8.587,-5.503 -8.587,-13.84 m 10.421,-24.096 c -12.338,0 -20.759,7.254 -20.759,21.178 0,14.006 8.504,22.177 19.259,22.177 9.671,0 16.091,-6.336 16.091,-15.591 0,-1.667 -0.167,-3.585 -0.417,-5.419 l -0.834,-1.418 h -23.678 c 0.584,-9.171 4.752,-13.673 12.923,-13.673 3.835,0 7.587,1.084 10.172,2.334 l -0.167,-7.086 c -2.668,-1.334 -7.67,-2.502 -12.59,-2.502"
       style="fill:#ffffff;fill-opacity:1;fill-rule:nonzero;stroke:none"
       id="path906" /><path
       d="m 936.7296,308.1203 v 31.516 l -0.75,10.172 10.755,0.833 v -7.087 c 3.085,4.503 8.004,7.087 13.507,7.087 7.337,0 11.172,-5.336 11.172,-13.006 v -29.515 h -10.005 v 27.097 c 0,5.586 -2.251,8.337 -6.42,8.337 -2.835,0 -5.753,-1.334 -8.254,-3.835 v -31.599 z"
       style="fill:#ffffff;fill-opacity:1;fill-rule:nonzero;stroke:none"
       id="path910" /><path
       d="m 991.8423,307.2863 c -4.752,0 -10.255,1.084 -13.84,2.585 l 0.667,8.171 c 3.335,-2.085 8.671,-3.752 13.09,-3.752 4.668,0 6.919,2.084 6.919,4.919 0,3.919 -4.585,5.336 -9.754,7.837 -5.169,2.418 -9.838,5.42 -9.838,11.506 0,7.254 6.837,12.088 16.841,12.088 4.169,0 8.254,-0.833 11.589,-2.25 l -0.667,-8.087 c -3.335,1.917 -7.587,3.418 -11.256,3.418 -4.084,0 -6.586,-2.168 -6.586,-5.086 0,-3.585 4.252,-5.419 8.254,-7.253 5.419,-2.502 11.256,-5.586 11.256,-12.256 0,-6.921 -6.003,-11.84 -16.675,-11.84"
       style="fill:#ffffff;fill-opacity:1;fill-rule:nonzero;stroke:none"
       id="path914" /></g></svg>
